HIERARCHY
ROOT Hips
{
    OFFSET 0.000000 0.000000 0.000000
    CHANNELS 6 Xposition Yposition Zposition Zrotation Xrotation Yrotation
    JOINT Spine
    {
        OFFSET -0.000000 8.339920 0.000000
        CHANNELS 3 Zrotation Xrotation Yrotation
        JOINT Spine1
        {
            OFFSET -0.000000 25.214485 0.000000
            CHANNELS 3 Zrotation Xrotation Yrotation
            JOINT Neck
            {
                OFFSET -0.000000 25.110935 2.282812
                CHANNELS 3 Zrotation Xrotation Yrotation
                JOINT Head
                {
                    OFFSET -0.000000 14.238888 -2.034127
                    CHANNELS 3 Zrotation Xrotation Yrotation
                    End Site
                    {
                        OFFSET -0.000000 25.426584 0.000000
                    }
                }
            }
            JOINT LeftShoulder
            {
                OFFSET 4.025024 23.158985 -0.185822
                CHANNELS 3 Zrotation Xrotation Yrotation
                JOINT LeftArm
                {
                    OFFSET 11.674057 0.000000 0.000000
                    CHANNELS 3 Zrotation Xrotation Yrotation
                    JOINT LeftForeArm
                    {
                        OFFSET 31.688633 0.000000 0.000000
                        CHANNELS 3 Zrotation Xrotation Yrotation
                        JOINT LeftHand
                        {
                            OFFSET 29.704493 0.000000 0.000000
                            CHANNELS 3 Zrotation Xrotation Yrotation
                            End Site
                            {
                                OFFSET 15.255952 0.000000 0.000000
                            }
                        }
                    }
                }
            }
            JOINT RightShoulder
            {
                OFFSET -4.099539 23.158985 -0.185822
                CHANNELS 3 Zrotation Xrotation Yrotation
                JOINT RightArm
                {
                    OFFSET -11.674057 0.000000 0.000000
                    CHANNELS 3 Zrotation Xrotation Yrotation
                    JOINT RightForeArm
                    {
                        OFFSET -31.688633 0.000000 0.000000
                        CHANNELS 3 Zrotation Xrotation Yrotation
                        JOINT RightHand
                        {
                            OFFSET -29.704493 0.000000 0.000000
                            CHANNELS 3 Zrotation Xrotation Yrotation
                            End Site
                            {
                                OFFSET -15.255952 0.000000 0.000000
                            }
                        }
                    }
                }
            }
        }
    }
    JOINT LeftUpLeg
    {
        OFFSET 10.170634 0.000000 0.000000
        CHANNELS 3 Zrotation Xrotation Yrotation
        JOINT LeftLeg
        {
            OFFSET -0.000000 -41.352962 0.000000
            CHANNELS 3 Zrotation Xrotation Yrotation
            JOINT LeftFoot
            {
                OFFSET -0.000000 -47.535004 0.000000
                CHANNELS 3 Zrotation Xrotation Yrotation
                JOINT LeftToeBase
                {
                    OFFSET -0.000000 -6.610912 15.255952
                    CHANNELS 3 Zrotation Xrotation Yrotation
                    End Site
                    {
                        OFFSET -0.000000 0.000000 4.068254
                    }
                }
            }
        }
    }
    JOINT RightUpLeg
    {
        OFFSET -10.170634 0.000000 0.000000
        CHANNELS 3 Zrotation Xrotation Yrotation
        JOINT RightLeg
        {
            OFFSET -0.000000 -41.352962 0.000000
            CHANNELS 3 Zrotation Xrotation Yrotation
            JOINT RightFoot
            {
                OFFSET -0.000000 -47.535004 0.000000
                CHANNELS 3 Zrotation Xrotation Yrotation
                JOINT RightToeBase
                {
                    OFFSET -0.000000 -6.610912 15.255952
                    CHANNELS 3 Zrotation Xrotation Yrotation
                    End Site
                    {
                        OFFSET -0.000000 0.000000 4.068254
                    }
                }
            }
        }
    }
}
MOTION
Frames:    14
Frame Time:    0.008333
33.702171    94.408783    48.282040    -2.830591    -0.255060    93.250351    -1.913342    -8.716828    -1.975619    5.595860    2.006540    -1.927864    -8.403177    31.080091    0.478075    2.752360    -2.254287    -0.289952    14.254827    0.166270    -2.651411    -20.780476    -12.423316    5.604753    7.892591    -34.547100    4.258193    -3.607426    -34.795494    0.257756    -21.153677    0.073483    -7.833558    23.050701    -7.578243    3.961122    -3.942292    -28.136236    0.457090    -20.546234    -27.333662    -4.913008    2.159633    5.584173    2.526516    -0.087738    -3.098615    5.845401    -3.810130    -3.835526    7.647112    0.000000    0.000000    0.000000    3.580827    4.174491    -0.005561    -2.375726    -2.322154    -1.418134    -3.166098    -4.474934    -11.275076    0.000000    0.000000    0.000000    
33.703854    94.404510    48.281921    -2.845030    -0.266531    93.241936    -1.898765    -8.744093    -1.975119    5.585145    2.034704    -1.929218    -8.395563    31.049709    0.496659    2.738158    -2.225918    -0.269842    14.259756    0.163672    -2.633644    -20.786646    -12.398389    5.595729    7.893705    -34.583515    4.262882    -3.555284    -34.832340    0.270479    -21.146240    0.050450    -7.825994    23.051508    -7.594867    3.956090    -3.935984    -28.143393    0.464634    -20.599548    -27.332220    -4.952265    2.173387    5.576266    2.493102    -0.089856    -3.112782    5.897986    -3.811944    -3.842041    7.630538    0.000000    0.000000    0.000000    3.589059    4.160658    0.033836    -2.372463    -2.318093    -1.413328    -3.167022    -4.486811    -11.313536    0.000000    0.000000    0.000000    
33.709061    94.406319    48.276402    -2.843113    -0.258870    93.239990    -1.918088    -8.742764    -1.969929    5.612224    2.035752    -1.923092    -8.399753    31.062784    0.490291    2.721159    -2.239070    -0.280605    14.241849    0.169326    -2.643246    -20.789383    -12.444753    5.585305    7.905019    -34.579269    4.273503    -3.548242    -34.829609    0.292553    -21.162050    0.051547    -7.834794    23.055319    -7.597293    3.954965    -3.940097    -28.148367    0.464243    -20.639061    -27.336264    -4.948590    2.159936    5.585351    2.494761    -0.084701    -3.118006    5.895558    -3.903835    -3.813740    7.630348    0.000000    0.000000    0.000000    3.581951    4.165709    0.003591    -2.379505    -2.318616    -1.397028    -3.148395    -4.482048    -11.298293    0.000000    0.000000    0.000000    
33.713108    94.405258    48.272625    -2.842382    -0.260099    93.245453    -1.921497    -8.743009    -1.970997    5.615787    2.036654    -1.923996    -8.401176    31.060133    0.486686    2.726930    -2.217265    -0.283993    14.164319    0.252229    -2.645140    -20.697098    -12.490653    5.559923    7.878077    -34.528759    4.319717    -3.771293    -34.776360    0.103372    -21.150627    0.075521    -7.837049    23.047396    -7.627767    3.966710    -3.934756    -28.151962    0.461417    -20.673967    -27.338324    -4.950321    2.163620    5.586281    2.519250    -0.095065    -3.116937    5.862678    -3.896778    -3.816978    7.635312    0.000000    0.000000    0.000000    3.584682    4.167358    -0.021409    -2.384037    -2.317429    -1.403931    -3.148160    -4.489596    -11.276409    0.000000    0.000000    0.000000    
33.714672    94.405296    48.269451    -2.847875    -0.266235    93.251984    -1.926629    -8.713734    -1.982291    5.680210    1.932586    -1.931369    -8.549203    31.234535    0.536451    2.782326    -2.333761    -0.257746    14.010646    0.339782    -2.723539    -20.579351    -12.552587    5.624594    7.866899    -34.529633    4.338874    -3.803465    -34.775894    0.026528    -21.189955    0.107307    -7.778132    23.045654    -7.652226    3.965461    -3.977230    -28.139011    0.423259    -20.687122    -27.328022    -4.936578    2.171204    5.570873    2.527165    -0.099265    -3.093317    5.846055    -3.900222    -3.835188    7.633767    0.000000    0.000000    0.000000    3.588702    4.164806    -0.009106    -2.383845    -2.321931    -1.421019    -3.144847    -4.481871    -11.270074    0.000000    0.000000    0.000000    
33.718414    94.403465    48.264004    -2.848038    -0.266315    93.251907    -1.927407    -8.705860    -1.980644    5.679915    1.915168    -1.928939    -8.539313    31.267076    0.530186    2.770387    -2.360574    -0.267015    14.006947    0.363582    -2.710938    -20.582901    -12.568802    5.593283    7.800633    -34.613438    4.308738    -3.468559    -34.859734    0.192478    -21.178522    0.122571    -7.777154    23.037155    -7.656643    3.977871    -3.972437    -28.172260    0.416772    -20.910860    -27.356077    -4.916893    2.164660    5.570016    2.547457    -0.092810    -3.091638    5.837294    -3.899453    -3.833492    7.618713    0.000000    0.000000    0.000000    3.582896    4.164703    -0.009991    -2.379480    -2.316412    -1.398197    -3.149094    -4.485977    -11.295886    0.000000    0.000000    0.000000    
33.724903    94.405952    48.256660    -2.829964    -0.270389    93.267433    -1.917039    -8.688808    -1.982720    5.676128    1.916328    -1.932076    -8.578213    31.274288    0.531011    2.823194    -2.363509    -0.263925    14.013775    0.347278    -2.723187    -20.592449    -12.592543    5.596961    7.793231    -34.599953    4.310223    -3.427793    -34.846939    0.226848    -21.185217    0.124947    -7.779727    23.041191    -7.663603    3.971652    -3.975919    -28.165035    0.429584    -20.759777    -27.341002    -4.998937    2.177616    5.557350    2.472978    -0.108515    -3.021714    5.796698    -3.785183    -3.892838    7.717578    0.000000    0.000000    0.000000    3.579268    4.186753    -0.011182    -2.365635    -2.309315    -1.391113    -3.177199    -4.483802    -11.326758    0.000000    0.000000    0.000000    
33.729469    94.405006    48.253315    -2.826308    -0.271781    93.275780    -1.921762    -8.689728    -1.986448    5.692335    1.929027    -1.936382    -8.581713    31.253979    0.538083    2.801107    -2.342289    -0.259348    13.997249    0.332629    -2.720185    -20.595215    -12.576183    5.601448    7.758502    -34.585266    4.296801    -3.199831    -34.830902    0.261660    -21.215773    0.112612    -7.794188    23.070854    -7.675499    3.984318    -4.003948    -28.126123    0.420432    -20.593418    -27.342230    -4.791312    2.174503    5.559711    2.505501    -0.103758    -3.024126    5.837402    -3.797007    -3.894260    7.628505    0.000000    0.000000    0.000000    3.582185    4.192910    -0.032931    -2.372771    -2.312459    -1.375462    -3.140966    -4.488484    -11.322320    0.000000    0.000000    0.000000    
33.733879    94.404686    48.250645    -2.819539    -0.275942    93.284508    -1.921718    -8.683197    -1.986892    5.693022    1.930084    -1.937002    -8.547866    31.254402    0.523857    2.764317    -2.337825    -0.275284    14.000716    0.343190    -2.711062    -20.606064    -12.574075    5.580726    7.778606    -34.590919    4.290850    -3.444854    -34.836525    0.230958    -21.207933    0.119565    -7.797422    23.067961    -7.646634    3.982377    -4.004845    -28.143930    0.429035    -20.597059    -27.355659    -4.816595    2.182967    5.567958    2.477699    -0.113597    -3.018039    5.806589    -3.791176    -3.912127    7.686513    0.000000    0.000000    0.000000    3.583723    4.202464    -0.027331    -2.370019    -2.307957    -1.366909    -3.143664    -4.495199    -11.347675    0.000000    0.000000    0.000000    
33.743114    94.399147    48.252548    -2.808903    -0.305431    93.272842    -1.893983    -8.675972    -1.974695    5.695359    1.924124    -1.926714    -8.560322    31.285906    0.520345    2.789924    -2.366682    -0.278680    13.995542    0.322916    -2.727474    -20.603695    -12.545218    5.595416    7.742220    -34.580936    4.279550    -3.190722    -34.825401    0.275682    -21.192741    0.127419    -7.806490    23.054228    -7.663895    3.985028    -3.998271    -28.130356    0.434269    -20.533466    -27.348970    -4.787537    2.220404    5.577733    2.525586    -0.126017    -3.005716    5.779943    -3.792300    -3.964788    7.676417    0.000000    0.000000    0.000000    3.626065    4.218483    -0.032609    -2.393329    -2.315813    -1.394802    -3.137159    -4.481511    -11.295118    0.000000    0.000000    0.000000    
33.742100    94.405212    48.243744    -2.818156    -0.280235    93.286568    -1.910981    -8.684624    -1.989795    5.683817    1.936093    -1.940803    -8.575341    31.276096    0.524100    2.788779    -2.372966    -0.276096    14.012590    0.331207    -2.708660    -20.629877    -12.543020    5.593905    7.738710    -34.580723    4.272258    -3.194570    -34.824287    0.258410    -21.215780    0.106778    -7.795711    23.080059    -7.679084    3.982643    -3.987571    -28.112659    0.442069    -20.475132    -27.341373    -4.736571    2.183489    5.569452    2.494905    -0.115014    -3.017191    5.834493    -3.793278    -3.915943    7.643178    0.000000    0.000000    0.000000    3.586881    4.202372    -0.017955    -2.378204    -2.294522    -1.367767    -3.160440    -4.492765    -11.349382    0.000000    0.000000    0.000000    
33.746979    94.406639    48.238632    -2.815932    -0.277440    93.286079    -1.925083    -8.679395    -1.984452    5.708062    1.929208    -1.934535    -8.544905    31.290699    0.482674    2.699997    -2.371936    -0.330569    13.995334    0.330031    -2.721591    -20.632275    -12.539481    5.593598    7.742459    -34.566597    4.273997    -3.220353    -34.810223    0.247810    -21.223129    0.128269    -7.812724    23.078056    -7.652267    3.993382    -3.983698    -28.127825    0.447048    -20.421856    -27.360949    -4.721518    2.164310    5.597328    2.547415    -0.092879    -3.067552    5.844946    -3.817769    -3.870057    7.582953    0.000000    0.000000    0.000000    3.580396    4.207147    -0.015006    -2.377298    -2.295192    -1.368231    -3.125553    -4.495882    -11.354486    0.000000    0.000000    0.000000    
33.748554    94.406593    48.232861    -2.819000    -0.276431    93.290054    -1.923180    -8.681385    -1.981807    5.698582    1.928475    -1.931789    -8.519167    31.307039    0.474245    2.683677    -2.395111    -0.339005    14.082799    0.213481    -2.728534    -20.753384    -12.446071    5.622570    7.787431    -34.551571    4.282490    -3.255917    -34.796768    0.230654    -21.201340    0.114982    -7.806669    23.057940    -7.613583    3.972115    -3.981536    -28.148676    0.459371    -20.403320    -27.378107    -4.747633    2.163573    5.591357    2.528426    -0.097530    -3.058421    5.825539    -3.795770    -3.881538    7.608444    0.000000    0.000000    0.000000    3.586679    4.205970    -0.054349    -2.392056    -2.311045    -1.490206    -3.123817    -4.493568    -11.208055    0.000000    0.000000    0.000000    
33.753288    94.406906    48.229343    -2.817726    -0.279015    93.282028    -1.913934    -8.678561    -1.982443    5.694676    1.921150    -1.932782    -8.545129    31.320833    0.485511    2.698644    -2.406483    -0.329819    14.083221    0.217255    -2.719096    -20.765852    -12.430631    5.623761    7.786940    -34.560345    4.275744    -3.235539    -34.805389    0.243824    -21.202951    0.122714    -7.810248    23.065155    -7.638923    4.000376    -3.926099    -28.228949    0.486165    -20.556465    -27.438480    -4.834642    2.163244    5.598234    2.553764    -0.099783    -3.061693    5.783116    -3.799749    -3.885172    7.638444    0.000000    0.000000    0.000000    3.586927    4.208405    -0.045707    -2.391561    -2.305303    -1.497518    -3.110240    -4.488124    -11.202571    0.000000    0.000000    0.000000    
